<?xml version="1.0" encoding="UTF-8"?>
<svg width="179.55mm" height="134mm" version="1.1" viewBox="0 0 179.55 134" xmlns="http://www.w3.org/2000/svg" xmlns:cc="http://creativecommons.org/ns#" xmlns:dc="http://purl.org/dc/elements/1.1/" xmlns:rdf="http://www.w3.org/1999/02/22-rdf-syntax-ns#"><title>Seagrass</title><metadata><rdf:RDF><cc:Work rdf:about=""><dc:format>image/svg+xml</dc:format><dc:type rdf:resource="http://purl.org/dc/dcmitype/StillImage"/><dc:title>Seagrass</dc:title></cc:Work></rdf:RDF></metadata><g transform="translate(-15.505 -11.133)"><path d="m147.79 91.378c1.9098 11.732-1.1003 20.929-12.121 18.543s-16.628-7.5047-12.632-18.574c6.9735-19.316 10.425-5.1058 16.43-25.775 3.8851-13.372 0.0592-19.517 4.8787-32.469 4.4887-12.063 16.191-23.265 12.456-11.554-5.3421 16.754-2.9306 20.838-3.0898 40.762-0.10298 12.883-7.9372 16.685-5.922 29.065z" fill="#aaebdd"/><path d="m141.46 89.58c4.1772 11.081 3.0393 20.721-8.218 20.721s-17.754-3.8232-16.02-15.506c3.0273-20.387 9.2009-7.2072 11.014-28.713 1.1732-13.914-3.7809-19.119-1.6104-32.819 2.0216-12.76 11.274-26.206 9.9215-13.95-1.9342 17.533 1.2296 21.02 4.9927 40.559 2.4332 12.634-4.4884 18.015-0.0804 29.708z" fill="#4ed831"/><path d="m134.97 87.501c6.2158 9.9978 6.9468 19.681-4.0859 22.003-11.033 2.3225-18.132-0.0841-18.669-11.891-0.93735-20.605 7.6371-8.9616 5.2958-30.412-1.5148-13.878-7.3668-17.957-7.8633-31.832-0.46235-12.922 6.0301-28.009 7.0521-15.718 1.4621 17.582 5.2305 20.347 12.66 38.719 4.8041 11.88-0.94881 18.582 5.6104 29.132z" fill="#4e951b"/><path d="m120.66 91.378c1.9098 11.732-1.1003 20.929-12.121 18.543-11.02-2.3853-16.628-7.5047-12.632-18.574 6.9735-19.316 10.425-5.1058 16.43-25.775 3.8851-13.372 0.0592-19.517 4.8787-32.469 4.4887-12.063 16.191-23.265 12.456-11.554-5.3421 16.754-2.9306 20.838-3.0898 40.762-0.10298 12.883-7.9372 16.685-5.922 29.065z" fill="#aaebdd"/><path d="m114.33 89.58c4.1772 11.081 3.0393 20.721-8.218 20.721s-17.754-3.8232-16.02-15.506c3.0273-20.387 9.2009-7.2072 11.014-28.713 1.1731-13.914-3.7809-19.119-1.6104-32.819 2.0216-12.76 11.274-26.206 9.9215-13.95-1.9342 17.533 1.2296 21.02 4.9927 40.559 2.4332 12.634-4.4884 18.015-0.0804 29.708z" fill="#4ed831"/><path d="m107.84 87.501c6.2158 9.9978 6.9468 19.681-4.0859 22.003-11.033 2.3225-18.132-0.0841-18.669-11.891-0.93735-20.605 7.6371-8.9616 5.2957-30.412-1.5148-13.878-7.3668-17.957-7.8633-31.832-0.46234-12.922 6.0301-28.009 7.0521-15.718 1.4621 17.582 5.2305 20.347 12.66 38.719 4.8041 11.88-0.9488 18.582 5.6104 29.132z" fill="#4e951b"/><path d="m91.464 91.378c1.9098 11.732-1.1003 20.929-12.121 18.543-11.02-2.3853-16.628-7.5047-12.632-18.574 6.9735-19.316 10.425-5.1058 16.43-25.775 3.8851-13.372 0.059181-19.517 4.8787-32.469 4.4887-12.063 16.191-23.265 12.456-11.554-5.3421 16.754-2.9306 20.838-3.0898 40.762-0.10295 12.883-7.9372 16.685-5.922 29.065z" fill="#aaebdd"/><path d="m85.129 89.58c4.1772 11.081 3.0393 20.721-8.218 20.721-11.257 0-17.754-3.8232-16.02-15.506 3.0273-20.387 9.2009-7.2072 11.014-28.713 1.1731-13.914-3.7809-19.119-1.6104-32.819 2.0216-12.76 11.274-26.206 9.9215-13.95-1.9342 17.533 1.2296 21.02 4.9927 40.559 2.4332 12.634-4.4884 18.015-0.08046 29.708z" fill="#4ed831"/><path d="m78.64 87.501c6.2158 9.9978 6.9468 19.681-4.0859 22.003-11.033 2.3225-18.132-0.0841-18.669-11.891-0.93735-20.605 7.6371-8.9616 5.2958-30.412-1.5148-13.878-7.3669-17.957-7.8633-31.832-0.46234-12.922 6.0301-28.009 7.0521-15.718 1.4621 17.582 5.2305 20.347 12.66 38.719 4.8041 11.88-0.9488 18.582 5.6104 29.132z" fill="#4e951b"/><text x="13.673596" y="144.66995" fill="#333333" font-family="'Malgun Gothic'" font-size="36.415px" font-weight="bold" letter-spacing="0px" stroke-width=".18966" word-spacing="0px" style="font-feature-settings:normal;font-variant-caps:normal;font-variant-ligatures:normal;font-variant-numeric:normal;line-height:1.25" xml:space="preserve"><tspan fill="#333333" font-family="'Malgun Gothic'" font-size="36.415px" font-weight="bold" stroke-width=".18966" style="font-feature-settings:normal;font-variant-caps:normal;font-variant-ligatures:normal;font-variant-numeric:normal">SEAGRASS</tspan></text></g></svg>
