<?xml version="1.0" encoding="UTF-8" standalone="no"?>
<svg
   xmlns:dc="http://purl.org/dc/elements/1.1/"
   xmlns:cc="http://creativecommons.org/ns#"
   xmlns:rdf="http://www.w3.org/1999/02/22-rdf-syntax-ns#"
   xmlns:svg="http://www.w3.org/2000/svg"
   xmlns="http://www.w3.org/2000/svg"
   xmlns:sodipodi="http://sodipodi.sourceforge.net/DTD/sodipodi-0.dtd"
   xmlns:inkscape="http://www.inkscape.org/namespaces/inkscape"
   width="179.55mm"
   height="134mm"
   version="1.1"
   viewBox="0 0 179.55 134"
   id="svg877"
   sodipodi:docname="seagrass-logo.svg"
   inkscape:version="0.92.4 (5da689c313, 2019-01-14)">
  <defs
     id="defs881" />
  <sodipodi:namedview
     pagecolor="#ffffff"
     bordercolor="#666666"
     borderopacity="1"
     objecttolerance="10"
     gridtolerance="10"
     guidetolerance="10"
     inkscape:pageopacity="0"
     inkscape:pageshadow="2"
     inkscape:window-width="1580"
     inkscape:window-height="1027"
     id="namedview879"
     showgrid="false"
     inkscape:zoom="0.68079921"
     inkscape:cx="118.71404"
     inkscape:cy="420.65098"
     inkscape:window-x="92"
     inkscape:window-y="-8"
     inkscape:window-maximized="1"
     inkscape:current-layer="svg877" />
  <title
     id="title849">Seagrass</title>
  <metadata
     id="metadata851">
    <rdf:RDF>
      <cc:Work
         rdf:about="">
        <dc:format>image/svg+xml</dc:format>
        <dc:type
           rdf:resource="http://purl.org/dc/dcmitype/StillImage" />
        <dc:title>Seagrass</dc:title>
      </cc:Work>
    </rdf:RDF>
  </metadata>
  <path
     style="fill:#aaebdd"
     inkscape:connector-curvature="0"
     id="path853"
     d="m 590.09864,75.581364 c 1.9098,11.732 -1.1003,20.929 -12.121,18.543 -11.0207,-2.386 -16.628,-7.5047 -12.632,-18.574 6.9735,-19.316 10.425,-5.1058 16.43,-25.775 3.8851,-13.372 0.0592,-19.517 4.8787,-32.469 4.4887,-12.0630003 16.191,-23.2650003 12.456,-11.5540003 -5.3421,16.7540003 -2.9306,20.8380003 -3.0898,40.7620003 -0.10298,12.883 -7.9372,16.685 -5.922,29.065 z" />
  <path
     style="fill:#4ed831"
     inkscape:connector-curvature="0"
     id="path855"
     d="m 583.76864,73.783364 c 4.1772,11.081 3.0393,20.721 -8.218,20.721 -11.2573,0 -17.754,-3.8232 -16.02,-15.506 3.0273,-20.387 9.2009,-7.2072 11.014,-28.713 1.1732,-13.914 -3.7809,-19.119 -1.6104,-32.819 2.0216,-12.7600003 11.274,-26.2060003 9.9215,-13.9500003 -1.9342,17.5330003 1.2296,21.0200003 4.9927,40.5590003 2.4332,12.634 -4.4884,18.015 -0.0804,29.708 z" />
  <path
     style="fill:#4e951b"
     inkscape:connector-curvature="0"
     id="path857"
     d="m 577.27864,71.704364 c 6.2158,9.9978 6.9468,19.681 -4.0859,22.003 -11.033,2.3225 -18.132,-0.0841 -18.669,-11.891 -0.93735,-20.605 7.6371,-8.9616 5.2958,-30.412 -1.5148,-13.878 -7.3668,-17.957 -7.8633,-31.832 -0.46235,-12.9220003 6.0301,-28.0090003 7.0521,-15.7180003 1.4621,17.5820003 5.2305,20.3470003 12.66,38.7190003 4.8041,11.88 -0.94881,18.582 5.6104,29.132 z" />
  <path
     style="fill:#aaebdd"
     inkscape:connector-curvature="0"
     id="path859"
     d="m 562.96864,75.581364 c 1.9098,11.732 -1.1003,20.929 -12.121,18.543 -11.02,-2.3853 -16.628,-7.5047 -12.632,-18.574 6.9735,-19.316 10.425,-5.1058 16.43,-25.775 3.8851,-13.372 0.0592,-19.517 4.8787,-32.469 4.4887,-12.0630003 16.191,-23.2650003 12.456,-11.5540003 -5.3421,16.7540003 -2.9306,20.8380003 -3.0898,40.7620003 -0.10298,12.883 -7.9372,16.685 -5.922,29.065 z" />
  <path
     style="fill:#4ed831"
     inkscape:connector-curvature="0"
     id="path861"
     d="m 556.63864,73.783364 c 4.1772,11.081 3.0393,20.721 -8.218,20.721 -11.2573,0 -17.754,-3.8232 -16.02,-15.506 3.0273,-20.387 9.2009,-7.2072 11.014,-28.713 1.1731,-13.914 -3.7809,-19.119 -1.6104,-32.819 2.0216,-12.7600003 11.274,-26.2060003 9.9215,-13.9500003 -1.9342,17.5330003 1.2296,21.0200003 4.9927,40.5590003 2.4332,12.634 -4.4884,18.015 -0.0804,29.708 z" />
  <path
     style="fill:#4e951b"
     inkscape:connector-curvature="0"
     id="path863"
     d="m 550.14864,71.704364 c 6.2158,9.9978 6.9468,19.681 -4.0859,22.003 -11.033,2.3225 -18.132,-0.0841 -18.669,-11.891 -0.93735,-20.605 7.6371,-8.9616 5.2957,-30.412 -1.5148,-13.878 -7.3668,-17.957 -7.8633,-31.832 -0.46234,-12.9220003 6.0301,-28.0090003 7.0521,-15.7180003 1.4621,17.5820003 5.2305,20.3470003 12.66,38.7190003 4.8041,11.88 -0.9488,18.582 5.6104,29.132 z" />
  <path
     style="fill:#aaebdd"
     inkscape:connector-curvature="0"
     id="path865"
     d="m 533.77264,75.581364 c 1.9098,11.732 -1.1003,20.929 -12.121,18.543 -11.02,-2.3853 -16.628,-7.5047 -12.632,-18.574 6.9735,-19.316 10.425,-5.1058 16.43,-25.775 3.8851,-13.372 0.0592,-19.517 4.8787,-32.469 4.4887,-12.0630003 16.191,-23.2650003 12.456,-11.5540003 -5.3421,16.7540003 -2.9306,20.8380003 -3.0898,40.7620003 -0.10295,12.883 -7.9372,16.685 -5.922,29.065 z" />
  <path
     style="fill:#4ed831"
     inkscape:connector-curvature="0"
     id="path867"
     d="m 527.43764,73.783364 c 4.1772,11.081 3.0393,20.721 -8.218,20.721 -11.257,0 -17.754,-3.8232 -16.02,-15.506 3.0273,-20.387 9.2009,-7.2072 11.014,-28.713 1.1731,-13.914 -3.7809,-19.119 -1.6104,-32.819 2.0216,-12.7600003 11.274,-26.2060003 9.9215,-13.9500003 -1.9342,17.5330003 1.2296,21.0200003 4.9927,40.5590003 2.4332,12.634 -4.4884,18.015 -0.0805,29.708 z" />
  <path
     style="opacity:1;vector-effect:none;fill:#4e951b;fill-opacity:1;stroke:none;stroke-width:2;stroke-linecap:butt;stroke-linejoin:round;stroke-miterlimit:4;stroke-dasharray:none;stroke-dashoffset:0;stroke-opacity:1;paint-order:normal"
     d="M 172.53477,0.70805444 C 159.50327,3.6852692 141.803,4.761742 135.11221,9.7401983 102.23792,34.201175 137.2881,80.912623 54.521311,94.377537 -55.467951,112.27111 132.35308,-1.6386603 98.453819,7.3687735 58.143952,14.220703 41.193898,41.49655 32.868598,53.353784 14.524572,79.480098 50.03931,93.673157 54.521311,94.377537 c 0,0 23.193847,-40.166014 118.013459,-93.66948256 z"
     id="rect894"
     inkscape:connector-curvature="0"
     sodipodi:nodetypes="csscscc" />
  <text
     id="text873"
     xml:space="preserve"
     style="font-weight:bold;font-size:36.41500092px;line-height:1.25;font-family:'Malgun Gothic';font-variant-ligatures:normal;font-variant-caps:normal;font-variant-numeric:normal;font-feature-settings:normal;letter-spacing:0px;word-spacing:0px;fill:#333333;stroke-width:0.18966"
     word-spacing="0px"
     letter-spacing="0px"
     font-weight="bold"
     font-size="36.415px"
     y="133.53696"
     x="-1.8314036"><tspan
       id="tspan871"
       style="font-weight:bold;font-size:36.41500092px;font-family:'Malgun Gothic';font-variant-ligatures:normal;font-variant-caps:normal;font-variant-numeric:normal;font-feature-settings:normal;fill:#333333;stroke-width:0.18966"
       font-weight="bold"
       font-size="36.415px">SEAGRASS</tspan></text>
</svg>
