<?xml version="1.0" encoding="UTF-8"?>
<svg width="179.55mm" height="134mm" version="1.1" viewBox="0 0 179.55 134" xmlns="http://www.w3.org/2000/svg" xmlns:cc="http://creativecommons.org/ns#" xmlns:dc="http://purl.org/dc/elements/1.1/" xmlns:rdf="http://www.w3.org/1999/02/22-rdf-syntax-ns#"><title>Seagrass</title><metadata><rdf:RDF><cc:Work rdf:about=""><dc:format>image/svg+xml</dc:format><dc:type rdf:resource="http://purl.org/dc/dcmitype/StillImage"/><dc:title>Seagrass</dc:title></cc:Work></rdf:RDF></metadata><g transform="translate(-15.505 -11.133)"><g transform="matrix(.8816 0 0 .72621 45.186 -46.252)"><path d="m128.8 184.63c2.7295 16.156-1.5726 28.819-17.323 25.534-15.751-3.2846-23.766-10.334-18.055-25.576 9.9667-26.599 14.899-7.0307 23.482-35.492 5.5528-18.414 0.0846-26.876 6.9728-44.711 6.4154-16.61 23.14-32.036 17.803-15.909-7.6351 23.071-4.1886 28.694-4.4161 56.13-0.14713 17.74-11.344 22.975-8.4639 40.023z" fill="#aaebdd"/><path d="m119.74 182.43c5.9702 15.258 4.3439 28.533-11.745 28.533-16.089 0-25.375-5.2646-22.896-21.351 4.3267-28.073 13.15-9.9243 15.742-39.538 1.6767-19.159-5.4038-26.327-2.3016-45.192 2.8893-17.57 16.113-36.086 14.18-19.209-2.7644 24.143 1.7574 28.945 7.1358 55.85 3.4776 17.397-6.4149 24.807-0.11499 40.908z" fill="#4ed831"/><path d="m110.47 180.45c8.8839 13.767 9.9287 27.1-5.8397 30.298-15.768 3.198-25.915-0.11577-26.683-16.374-1.3397-28.373 10.915-12.34 7.5689-41.878-2.165-19.11-10.529-24.728-11.238-43.833-0.66079-17.794 8.6184-38.568 10.079-21.644 2.0897 24.211 7.4756 28.018 18.094 53.317 6.8662 16.358-1.3561 25.587 8.0185 40.115z" fill="#4e951b"/><path d="m90.023 185.3c2.7295 16.156-1.5726 28.819-17.323 25.534-15.751-3.2846-23.766-10.334-18.055-25.576 9.9667-26.599 14.899-7.0307 23.482-35.492 5.5528-18.414 0.08459-26.876 6.9728-44.711 6.4154-16.61 23.14-32.036 17.803-15.909-7.6351 23.071-4.1886 28.694-4.4161 56.13-0.14714 17.74-11.344 22.975-8.4639 40.023z" fill="#aaebdd"/><path d="m80.968 183.1c5.9702 15.258 4.3439 28.533-11.745 28.533-16.089 0-25.375-5.2646-22.896-21.351 4.3267-28.073 13.15-9.9243 15.742-39.538 1.6767-19.159-5.4038-26.327-2.3016-45.192 2.8893-17.57 16.113-36.086 14.18-19.209-2.7645 24.143 1.7574 28.945 7.1358 55.85 3.4776 17.397-6.4149 24.807-0.11499 40.908z" fill="#4ed831"/><path d="m71.694 181.12c8.8839 13.767 9.9287 27.1-5.8397 30.298-15.768 3.198-25.915-0.11577-26.683-16.374-1.3397-28.373 10.915-12.34 7.5689-41.878-2.165-19.11-10.529-24.728-11.238-43.833-0.66079-17.794 8.6184-38.568 10.079-21.644 2.0897 24.211 7.4756 28.018 18.094 53.317 6.8662 16.358-1.3561 25.587 8.0185 40.115z" fill="#4e951b"/><path d="m48.29 186.52c2.7295 16.156-1.5726 28.819-17.323 25.534-15.751-3.2846-23.766-10.334-18.055-25.576 9.9667-26.599 14.899-7.0307 23.482-35.492 5.5528-18.414 0.08459-26.876 6.9728-44.711 6.4154-16.61 23.14-32.036 17.803-15.909-7.6351 23.071-4.1886 28.694-4.4161 56.13-0.14714 17.74-11.344 22.975-8.4639 40.023z" fill="#aaebdd"/><path d="m39.236 184.32c5.9702 15.258 4.3439 28.533-11.745 28.533-16.089 0-25.375-5.2646-22.896-21.351 4.3267-28.073 13.15-9.9243 15.742-39.538 1.6767-19.159-5.4038-26.327-2.3016-45.192 2.8893-17.57 16.113-36.086 14.18-19.209-2.7645 24.143 1.7574 28.945 7.1358 55.85 3.4776 17.397-6.4149 24.807-0.11499 40.908z" fill="#4ed831"/><path d="m29.961 182.34c8.8839 13.767 9.9287 27.1-5.8397 30.298-15.768 3.198-25.915-0.11577-26.683-16.374-1.3397-28.373 10.915-12.34 7.5689-41.878-2.165-19.11-10.529-24.728-11.238-43.833-0.66079-17.794 8.6184-38.568 10.079-21.644 2.0896 24.211 7.4756 28.018 18.094 53.317 6.8662 16.358-1.3561 25.587 8.0185 40.115z" fill="#4e951b"/></g><text x="13.673596" y="144.66995" fill="#333333" font-family="'Malgun Gothic'" font-size="36.415px" font-weight="bold" letter-spacing="0px" stroke-width=".18966" word-spacing="0px" style="font-feature-settings:normal;font-variant-caps:normal;font-variant-ligatures:normal;font-variant-numeric:normal;line-height:1.25" xml:space="preserve"><tspan fill="#333333" font-family="'Malgun Gothic'" font-size="36.415px" font-weight="bold" stroke-width=".18966" style="font-feature-settings:normal;font-variant-caps:normal;font-variant-ligatures:normal;font-variant-numeric:normal">SEAGRASS</tspan></text></g></svg>
