<?xml version="1.0" encoding="UTF-8"?>
<svg width="512" height="512" version="1.1" viewBox="0 0 135.47 135.47" xmlns="http://www.w3.org/2000/svg" xmlns:cc="http://creativecommons.org/ns#" xmlns:dc="http://purl.org/dc/elements/1.1/" xmlns:rdf="http://www.w3.org/1999/02/22-rdf-syntax-ns#"><metadata><rdf:RDF><cc:Work rdf:about=""><dc:format>image/svg+xml</dc:format><dc:type rdf:resource="http://purl.org/dc/dcmitype/StillImage"/><dc:title/></cc:Work></rdf:RDF></metadata><g transform="translate(-55.742 12.07)"><g transform="matrix(1.2641 0 0 1.2641 -7.2376 -38.443)"><path d="m140.63 102.75c2.4063 11.732-1.3864 20.929-15.272 18.543-13.886-2.3853-20.952-7.5047-15.917-18.574 8.7866-19.316 13.135-5.1058 20.702-25.775 4.8953-13.372 0.0746-19.517 6.1472-32.469 5.6558-12.063 20.4-23.265 15.695-11.554-6.731 16.754-3.6926 20.838-3.8932 40.762-0.12971 12.883-10.001 16.685-7.4617 29.065z" fill="#4ed8c7"/><path d="m132.65 101.15c5.2633 11.081 3.8296 20.721-10.355 20.721s-22.371-3.8232-20.185-15.506c3.8144-20.387 11.593-7.2072 13.878-28.713 1.4782-13.914-4.764-19.119-2.0291-32.819 2.5472-12.76 14.205-26.206 12.501-13.95-2.4371 17.533 1.5494 21.02 6.2909 40.559 3.0659 12.634-5.6554 18.015-0.10138 29.708z" fill="#4ed831"/><path d="m124.47 99.712c7.832 9.9978 8.7531 19.681-5.1482 22.003-13.901 2.3225-22.847-0.0841-23.524-11.891-1.1811-20.605 9.6228-8.9616 6.6727-30.412-1.9087-13.878-9.2823-17.957-9.9078-31.832-0.58255-12.922 7.598-28.009 8.8857-15.718 1.8422 17.582 6.5905 20.347 15.952 38.719 6.0532 11.88-1.1955 18.582 7.0691 29.132z" fill="#4e951b"/><path d="m103.84 103.63c2.4063 11.732-1.3864 20.929-15.272 18.543-13.886-2.3853-20.952-7.5047-15.917-18.574 8.7866-19.316 13.135-5.1058 20.702-25.775 4.8953-13.372 0.074574-19.517 6.1472-32.469 5.6558-12.063 20.4-23.265 15.695-11.554-6.731 16.754-3.6926 20.838-3.8932 40.762-0.12971 12.883-10.001 16.685-7.4617 29.065z" fill="#4ed8c7"/><path d="m95.855 102.03c5.2633 11.081 3.8296 20.721-10.355 20.721-14.184 0-22.371-3.8232-20.185-15.506 3.8144-20.387 11.593-7.2072 13.878-28.713 1.4782-13.914-4.764-19.119-2.0291-32.819 2.5472-12.76 14.205-26.206 12.501-13.95-2.4371 17.533 1.5494 21.02 6.2909 40.559 3.0659 12.634-5.6554 18.015-0.10137 29.708z" fill="#4ed831"/><path d="m87.678 100.6c7.832 9.9978 8.7531 19.681-5.1482 22.003-13.901 2.3225-22.847-0.0841-23.524-11.891-1.1811-20.605 9.6228-8.9616 6.6727-30.412-1.9087-13.878-9.2823-17.957-9.9078-31.832-0.58255-12.922 7.598-28.009 8.8857-15.718 1.8422 17.582 6.5905 20.347 15.952 38.719 6.0532 11.88-1.1955 18.582 7.0691 29.132z" fill="#4e951b"/></g></g></svg>
